/* XPM */
static const char *shape01_xpm[] = {
/* columns rows colors chars-per-pixel */
"53 61 196 2",
"1. c #E02F2D",
"m  c #6B8C63",
"K. c #C3A54C",
"8. c #F79E50",
"$  c #C43429",
"-. c #C62B23",
"M. c #DEAD4C",
"J  c #CE392D",
"*X c #E9C554",
"L. c #E1B755",
"*. c #D0363C",
"j. c #FBB55E",
"_. c #F7D6A5",
"i  c #565433",
"o. c #8C734A",
"!  c #D44A2D",
"S  c #5D7E4A",
"I. c #FFC64A",
"X  c #808080",
"4  c #52603C",
"i. c #DE2323",
"Y. c #947534",
">. c #F7B54A",
"F  c #952D14",
"5  c #434B27",
"J. c #FFC65A",
"*  c #884A32",
"e. c #E2B539",
"=. c #7F8456",
"`. c #FFE7CE",
"D  c #638C52",
"0  c #994A34",
"U. c #FFBD52",
" . c #A57B5A",
"Y  c #C13516",
"3  c #6B6B52",
"t. c #DEB531",
"@X c #DEC15A",
"P. c #FFBD63",
"^. c #CEAB6D",
"C  c #C63F39",
"E  c #6B9463",
"9  c #8E5235",
"I  c #AD5A52",
"K  c #756A45",
"-  c #737352",
"%  c #BD4A4A",
"n. c #EFB531",
"N  c #BB4A3A",
"'  c #BD4A52",
"k. c #D62929",
"u. c #EFB539",
"]  c #739C63",
"@. c #E7AD4E",
"+X c #F7E7B5",
"t  c #6F794A",
"q  c #676B4A",
"7. c #EFB542",
"T  c #D84C3B",
"@  c #6B5637",
"u  c #7B7B5A",
"v  c #6C371F",
"$X c #EFD6BD",
".X c #FFCE4A",
".. c #948C63",
"r  c #7B7554",
"{  c #EFB55A",
",  c #B1332B",
"{. c #A0A0A4",
"%X c #F7E7D6",
"z. c #D6983D",
"y  c #686F42",
"b  c #7D341C",
"O  c #945A4A",
"h  c #716D60",
"q. c #BD2914",
"X. c #C62118",
"F. c #F7BD5A",
"!. c #526B63",
"~. c #FFCE6B",
"'. c #FFEFDE",
"(. c #948C84",
"C. c #DEC642",
"$. c #B84510",
"k  c #73845A",
"m. c #EFC639",
"&. c #E2454A",
"&X c #C6BDB5",
"Q  c #BD4C22",
"5. c #B62215",
";. c #EFC642",
"`  c #CE261E",
"<. c #CE2929",
"w. c #DEBD39",
"b. c #EFC64A",
"G  c #706831",
"B  c #C64A4A",
"d  c #567348",
"+  c #785035",
"y. c #E7B542",
"XX c #EFBD31",
"P  c #BC3C39",
"N. c #CEA44C",
"s. c #EFC652",
"OX c #DEC663",
"8  c #567352",
"6. c #EFBD39",
"H. c #DEBD4A",
"B. c #EFC65A",
"W  c #779867",
"6  c #57543E",
"<  c #A73F37",
"2. c #D63131",
"c  c #50502A",
":. c #EFBD42",
"|  c #DE3921",
"w  c #4F6C3F",
"D. c #EFC663",
">  c #784429",
"   c None",
"/. c #AD7F52",
"+. c #EFBD4A",
"o  c #88372B",
"O. c #EFBD52",
"G. c #DEBD63",
"/  c #848484",
"~  c #DE3931",
"f  c #5A8452",
"#X c #F7CE63",
"3. c #CE3D1C",
"|. c #FFD652",
"H  c #716623",
".  c #C0C0C0",
"). c #8C8C7B",
"n  c #6F7B56",
"e  c #5A845A",
"c. c #F7CE6B",
"x. c #EFBD63",
"0. c #DA4235",
"a  c #6B8452",
" X c #E7C631",
"v. c #FFD663",
"a. c #BE4420",
"l  c #6B845A",
"d. c #C31C16",
";  c #637352",
"x  c #5A7B52",
"2  c #664827",
"[. c #E7C642",
")  c #EB4239",
"f. c #CE3118",
"V. c #E7C64A",
"]. c #FFF7E7",
"W. c #EFCE39",
"p  c #576847",
"4. c #CE3125",
"E. c #EFCE42",
"g. c #A74417",
"R. c #EFCE4A",
"=  c #715D3C",
"^  c #CE3131",
"Z  c #D4483B",
"Z. c #E7BD42",
"#  c #8A422B",
"T. c #EFCE52",
"7  c #48533A",
"[  c #B23012",
"S. c #EFCE5A",
"l. c #BD742B",
"M  c #5A6331",
"h. c #F9AD5A",
"U  c #6A5327",
"9. c #D21C29",
"R  c #D63935",
"j  c #566F3E",
"}  c #B9542A",
"#. c #D26831",
"A  c #638452",
"A. c #F7D663",
":  c #45663D",
"p. c #E42926",
"g  c #63845A",
"L  c #D0422E",
"}. c #E7BD73",
"&  c #9D3028",
"V  c #A9322C",
"%. c #CE4221",
"Q. c #525252",
"_  c #EC3736",
"z  c #6B8C5A",
"1  c #52401C",
"s  c #637B52",
"(  c #D08E3B",
"r. c #CC1C1C",
",. c #E69842",
"oX c #EFCE94",
/* pixels */
"                                          . . . . . . X                                                   ",
"                                    . . . o O + + @ + # . X                                               ",
"                                . . $ % & * = - ; : ; + + > . X                                           ",
"                            . . , , < < o 1 2 3 4 5 4 6 7 4 7 8 . X                                       ",
"                        . . 9 * 0 O o > > 1 5 6 q 7 4 w : : 8 e 8 8 . X                                   ",
"                    . . - r t y u u = i 6 6 q 4 3 u 3 8 : 7 : 4 p 4 4 ; X                                 ",
"                . . a s w d f f w w p q ; g ; 4 ; h 4 4 5 5 5 i @ + = i 2 . X                             ",
"              . i j k l ; 8 z g 7 5 x ; x s w : : w 4 c 1 1 v b o b o o # o b . X                         ",
"          . . p 4 8 e p n k m x 4 7 y 6 M 5 5 4 p 2 = O o # < N & < N N B N , < , . X                     ",
"      . . + r q 8 e m 4 s w 7 5 5 2 2 > + O O O 9 < < < $ $ V V , , C Z N N 0 b > > 1 X                   ",
"    . , < o 2 n e A S D m A w 5 5 2 9 * 0 # # o < < < , V , , < , < F o b b * = G H t X                   ",
"    . J C 0 + = ; e s x S A f t M @ > * > # > o > b b * > v > + + > 2 = 2 i K y y M j y X                 ",
"    . L P Z I + @ t k A ; w w S t r = = @ 2 1 U U * @ c 5 7 = 3 i 7 6 7 : s S k l a 3 = X                 ",
"  . Y L T R C N 0 + r t a A S f S y : M y 4 j y t y K 7 c 4 p 6 7 : : s E W W u r = > > v X               ",
"  . Q ! T ~ ^ L B 0 > u n S j w f S j s f A D a y M @ 6 6 i 5 4 x m g s x 3 = 9 + # 0 0 > + /             ",
"  . ( ! L ) _ ` J ' 9 @ @ j A E z 4 M W t y 4 i U 2 * o # * K l ] m ; y * b o & [ P N 2 K r X             ",
"  . { } ! | ~ ) ) C B O > = y y w i t K = > > > 0 0 % % < O  ...a G G b 0 , X.^ J $ & + r o.= X           ",
". O.+.@.#.$.%.T _ &.*.% 0 b @ K =.K = 0 0 % Z *.P $ P ' N I  .+ > # 0 N Z ^ -.^ $ & F 0 9 0 N X           ",
". ;.:.>.,.$.Q ! &.<.*.*.C N 0 * U * O N $ ^ 1.2.~ &.&.% & & < < 0 N T ! ^ <.^ $ V F F & < N Z T X         ",
". ;.;.+.>.,.Q Q 3.&.^ ` <.$ N N < } N $ ^ 1.2.~ ) Z Z V & , P P $ T ! J 4.-.J P 5.& V N P P $ -.X         ",
". ;.6.7.O.>.8.$.#.X X ` 9.X.-.^ J P -.-.^ 0.&.0.&.L $ 5.$ *.L $ J J 4.^ ^ ^ *.*.V , *.^ ^ ^ ^ q.5.X       ",
". ;.w.e.7.O.,.X X     . 0.^ ` ` r.r.r.` J ^ J 4.Y $ Y $ P ^ -.5.<.1.1.~ 1.1.1.^ <.-.^ -.5.X.-.-.V X       ",
". w.t.y.O.u.X           . L 4.i.i.p.r.` 4.` -.Y q.q.q.q.-.q.5.` ~ 0.~ 1.1.1.r.` ` -.q.-.4.! L a.Q #./     ",
"  . e.;.e.s.X             . Y 0.~ i.` ` -.q.-.5.d.d.q.d.q.-.f.T &.) ^ r.9.r.9.` 4.-.Y [ [ g.#.,.h.j.X     ",
"    . X X X                 . %.f.4.~ J X.5.X.X.r.r.r.r.p.J J L L -.q.d.r.r.` 3.a.[ g.} ( 8.j.h.>.@.7.X   ",
"                            . $.a.3.%.J 4.X.9.k.1.i.i.i.1.1.J -.[ V -.-.L L Q g.} l.z.{ +.x.O.7.7.:.6.X   ",
"                            . l.$.$.a.a.3.^ J ` r.9.i.i.| f.4.a.$ N ! } Q Q } l.z.x.c.v.b.w.:.:.n.m.;.X   ",
"                            . { M.l.l.Q Q Q %.! L J L ! a.[ F 5.[ g.Q } l.N.{ x.B.x.+.V.C.w.Z.t.t.:.b.A.X ",
"                            . S.D.F.M.( l.} Q Q Q g.$.g.g.F g.$.#.,.8.{ { x.G.H.O.b.J.m.C.;.s.w.s.H.H.K.X ",
"                            . C.H.L.O.x.F.@.@.z.( z.K.M.M.@.h.h.j.j.j.P.D.b.s.s.I.U.:.:.t.e.L.H.K.Y.H H X ",
"    . . . . X               . C.Z.w.w.O.>.O.+.s.s.s.D.H.H.O.+.O.U.O.O.b.s.b.s.b.O.+.U.+.e.O.D.K.Y.G G y X ",
"  . :.m.;.:.X             . m.:.:.7.:.7.u.M.6.T.R.;.w.s.s.:.;.6.;.;.m.C.;.R.T.:.w.C.O.e.O.x.K.G 1 c p p X ",
"  . ;.:.6.;.w.X       . . w.:.:.6.7.u.n.n.6.;.;.;.E.R.:.m.;.;.E.W.C.C.R.;.:.w.;.s.b.s.H.D.G.Y.1 c Q.Q.!.X ",
". :.:.;.:.:.:.6.. . . ;.:.;.m.:.:.e.7.e.:.s.b.;.m.T.T.;.w.w.;.b.T.;.6.;.;.;.R.T.b.;.C.L.~.^.U U 7 Q.Q.Q.X ",
". O.b.:.m.:.:.:.6.;.b.s.m.;.s.b.:.:.w.:.s.b.T.b.T.b.s.R.;.:.s.R.s.b.;.;.b.s.b.T.b.s.+.B.G./.K.(.).h ).X   ",
". s.b.s.;.:.m.:.:.:.b.;.s.b.s.b.s.:.e.s.b.s.R.T.s.b.;.T.m.:.;.;.;.b.s.b.s.b.s.s.b.s.O.b.H.N._.`.'.'.].X   ",
". O.b.;.;.6.:.;.:.;.;.6.;.:.;.:.b.;.e.;.;.b.T.R.T.T.b.T.s.m.C.w.Z.[.R.s.R.s.b.s.;.;.:.:.L.G.^.^.{.^./     ",
". :.b.;.:.;.6.:.:.6.;.:.;.6.e.:.;.:.e.w.:.s.b.s.b.T.R.T.T.b.s.;.:.;.b.s.b.;.;.;.6.:.m.E.w.s.L.}.^.}.X     ",
". ;.;.6.:.:.:.m.;.;.:.6.;.:.C.:.6.:.;.e.:.s.b.T.b.s.s.R.s.b.T.R.;.;.:.:.:.m.:.:.:.;.;.E.m.Z.D.H.x.X       ",
". :.;.;.m.;.;.b.;.:.6.;.;.;.b.:.:.m.s.:.:.b.s.b.s.b.;.C.C.;.b.s.b.;.b.s.b.s.:.m.:.b.s.R.|.+.O.e.O.X       ",
". w.y.b.;.;.;.b.;.;.w.:.;.b.T.b.:.:.b.s.;.;.b.T.R.T.;.R.;.w.C.s.b.T.|.R.T.b.s.:.m.s.b.;.:.O.e.O.X         ",
". :.:.:.m.s.b.s.:.6.Z.Z.w.Z.C.:.6.w.y.Z.m.T.R.T.T.R.T.b.s.s.b.s.b.s.b.T.T.b.;.C.w.:.T.m.;.w.M.M.X         ",
". s.b.;.b.s.s.b.:.;.:.;.:.6.:.:.:.e.H.6.:.:.;.b.T.R.T.T.R.T.b.s.T.b.s.b.s.R.s.:.:.6.;.E.C.w.L.X           ",
". :.;.b.s.;.m.:.:.;.m.:.:.;.6.;.:.:.e.;.:.w.:.b.T.T.R.T.T.T.R.T.T.s.b.s.s.b.s.b.s.b.C. X Xw.X             ",
"  . :.:.6.:.:.;.6.s.b.;.;.m.:.:.;.:.:.b.:.;.;.R.T.T.R.T.R.T.T.R.T.T.b.s.b.s.b.s.s.b.C.w.C.;.X             ",
"  . O.w.y.w.:.:.:.;.b.s.b.;.;.6.s.b.s.b.s.b.T.T.R.s.;.V.s.R.A.S.T.T.T.b.s.b.s.b.s.s.b.D.B.X               ",
"    . y.w.:.:.;.m.X X X X X X X X X X ;.b.s.R.T.s.m.C.w.s.T.X X X X T.b.s.s.;.w.O.b.T.~.c.X               ",
"      . :.:.;.X X                     . ;.b.T.T.b.;.;.C.V.X         . X X X X :.s.b.T..XX                 ",
"      . s.b.X                           . s.R.T.;.b.s.w.X                     . X s.b.X X                 ",
"      . X X                               . s.m.E.w.s.X                           . X                     ",
"                                          . C.XX.XO.H.X                                                   ",
"                                          . D.b.T.s.+.s.X                                                 ",
"                                      . . K.G.A.V.s.b.s.;.X                                               ",
"                                    . oXG H Y.OXS.I.:.s.m.;.X                                             ",
"                                    . +X= 1 H K.@X#X:.:.b.;.m.X                                           ",
"                                    . $Xh 5 M H K.s.;.+.s.E.;.X                                           ",
"                                    . %Xh 5 5 U K.H.:.+.s.I.;.X                                           ",
"                                    . $X(.5 5 j H L.V.s.s.b.X                                             ",
"                                      . &X7 7 7 G K.*Xs.O.+.X                                             ",
"                                        . Q.: c M H OXH.s.X                                               ",
"                                          . X X X X X X X                                                 "
};
