/* XPM */
static const char *test_xpm[] = {
/* columns rows colors chars-per-pixel */
"39 27 29 1",
"* c #FFEF29",
"% c #F7F7F7",
"$ c #B98996",
"3 c #FFFFF7",
"  c #FFFFFF",
"0 c #EA9592",
"& c #949CB5",
"5 c #F3B9BB",
". c #002952",
"X c #00295A",
"6 c #FFE7E7",
", c #FFF729",
"2 c #E68989",
"o c #638CB5",
"9 c #FFF773",
"4 c #F7DEDE",
"- c #FFF784",
"8 c #FFEFEF",
": c #EF1000",
"; c #EF1008",
"< c #ECE0DA",
"@ c #FFF7EF",
"# c #FFF7F7",
"> c #EF2110",
"1 c #E27371",
"7 c #BD1008",
"+ c #868694",
"O c #EFEFEF",
"= c #F4DBA2",
/* pixels */
"                                       ",
"            .XX.XXX.XXX.XX             ",
"           .oooooooooooooo.            ",
"           .oO+ooooooooooo.            ",
"           .o@+ooooooooooo.            ",
"           .o#$ooooooooooo.            ",
"           .o%&ooooooooooo.            ",
"           .o@$ooooooooooo.            ",
"           .o%&ooooooooooo.            ",
"           .o@$ooooooooo.............. ",
"           .o%&oooooooo.**************.",
"  ..........o@$oooooooo.*=-***********.",
" .;;;:>:>:>.o%&oooooooo.,%<,**********.",
" .;12:;;;;:.o@+oooooooo.*34,**********.",
" .:5@>>:>;>.ooooooooooo.*%6,**********.",
" .;5@>;;;;:.ooooooooooo.,@<,**********.",
" .;5@>;>:>;7............*%6,**********.",
" .;5@>;;;;;;>;;;.      .*@<,**********.",
" .;5@>;>:>:>:;>;.      .*%6,**********.",
" .;5@>;;;;;;;;:>.      .*@<,**********.",
" .>58>;>:>:>:>;:.      .*%6,**********.",
" .;5@>;;;;;;;;;>.      .*@<,**********.",
" .;58>;>:>:>:>:;.      .*-9***********.",
" .;5@>;;;;;;;;;>.      .**************.",
" .;10;>:>:>:>:>:.       .............. ",
" .;>:;;;;;;;;;:;.                      ",
"  ..............                       "
};
