/* XPM */
static const char *brush_xpm[] = {
/* columns rows colors chars-per-pixel */
"16 16 116 2",
"X. c #21C318",
"Z  c Black",
"]  c #9C6931",
"5. c #BDA694",
"e  c #ADB6A5",
"7  c #18F731",
"A  c #737173",
"~  c #080808",
"c  c #08CF18",
"`  c #31D318",
"I  c #949694",
"d  c #63BE63",
":  c #10D718",
"0  c #00DB00",
"|  c #84C38C",
"%  c #E7EFE7",
"*  c #ADAAAD",
"a  c #18B618",
"P  c #9C9EA5",
"w  c #08E308",
"&  c #CECFCE",
"R  c #18D300",
"{  c #734110",
"5  c #B5B2B5",
"<  c #00CF00",
"U  c #9CBE9C",
"<. c #B59A73",
"=  c #D6D7D6",
":. c #733808",
"O. c #A56931",
"   c None",
"+. c #B58E52",
"3. c #7B4918",
"9  c #00EF00",
"_  c #18FF31",
"O  c #ADE7AD",
"$. c #D6CBBD",
"%. c #B5CFB5",
"L  c #E7D7D6",
"m  c #5AAE5A",
";. c #B58239",
"S  c #EFEBEF",
"K  c #AD7D5A",
"z  c #DEDFDE",
"f  c #42C742",
"-. c #9C6529",
"X  c #CEE3D6",
"o. c #D6AA73",
"$  c #D6EBCE",
"=. c #D6AA7B",
"(  c #6BAE73",
"C  c #ADB2B5",
"g  c #39C339",
"V  c #DED3E7",
"8  c #10FF21",
"u  c #10FF29",
"+  c #A5E7A5",
"k  c #C6C3C6",
")  c #18E731",
"Y  c #10D321",
"#  c #BDEBB5",
">. c #734921",
".. c #10FF39",
"3  c #9CE394",
"4  c #CECBCE",
"2. c #6B2C00",
"r  c #C6BAC6",
"Q  c #AD7931",
"H  c #21C708",
"x  c #52A252",
"1. c #631800",
"[  c #B58A4A",
"6  c #94A694",
"l  c #000400",
".  c #D6D3D6",
"*. c #5AFF63",
"2  c #4AD739",
"o  c #BDDFBD",
"1  c #08D300",
"p  c #00EB00",
",. c #EFE7E7",
"y  c #319A39",
"D  c #ADBAAD",
"t  c #DEDBDE",
"E  c #C6B66B",
"J  c #B5B67B",
">  c #10DB10",
"q  c #00DF00",
"M  c #C6CBC6",
"h  c #5A9E52",
"}  c #845118",
"v  c #10FB18",
"T  c #00FF00",
"'  c #DEAE7B",
"n  c #10CF10",
"i  c #00FF08",
"G  c #10CF18",
"4. c #8C6542",
"&. c #00B621",
",  c #00D300",
"@  c #A5E3A5",
"#. c #734518",
"^  c #B5B6BD",
"!  c #AD8A5A",
"N  c #E7E7E7",
"-  c #52AA5A",
"b  c #00F300",
"@. c #733C10",
" . c #31F752",
";  c #21CF29",
"/  c #EFEFEF",
"j  c #CEC7D6",
"W  c #AD7531",
"s  c #63AA63",
"F  c #529E52",
"B  c #D6CFCE",
/* pixels */
"                                ",
"                              . ",
"    X o O + @ O # $ %       & * ",
"= - ; : > , < < , 1 2 3   4 5   ",
"6 7 8 9 0 , , 0 0 q q w e r e = ",
"t y u i p q a s d f g h j h k l ",
"  z x c v b n m M N B V B C Z A ",
"    S D F G 9 q H J K L P Z I   ",
"        U Y T R E W Q ! ~ ^     ",
"    / ( ) _ ` ' ] [ { } t       ",
"    |  ...X.o.O.+.@.#.$.        ",
"    %.&.*.=.-.;.:.>.,.          ",
"      <.1.2.3.4.5.              ",
"                                ",
"                                ",
"                                "
};
