/* XPM */
static const char *brush_xpm[] = {
/* columns rows colors chars-per-pixel */
"16 16 126 2",
"K  c Black",
"Q  c #E0D4D0",
"0  c #1AF433",
"m  c #C5C3C5",
"#  c #ABE5AB",
"l  c #1EB61A",
"%  c #D1EBCF",
"J  c #AFB0B1",
"&  c #E4EEE4",
")  c #1ED305",
"4. c #D6AB78",
"V  c #0FCD18",
"-. c #D6A875",
"H  c #D9D3E4",
"Z  c #01F105",
"%. c #86C08A",
"n  c #CFC5D0",
"T  c #00DE00",
"9  c #95A695",
">. c #723D12",
"t  c #00DB00",
".. c #1EFF33",
"X. c #36D118",
"#. c #84501F",
"'  c #AA7936",
"W  c #AC7C5B",
"C  c #15FB1F",
"z  c #67A967",
".  c #D3D3D3",
"f  c #359B3A",
";. c #A06B32",
"&. c #33F652",
"2  c #00CF00",
"G  c #D3CDCF",
"D  c #C0CAC0",
"1. c #B7CFB7",
"7. c #733B0F",
"O  c #AFE4AE",
"   c None",
"o. c #DAAD79",
"o  c #B8DCB9",
"B  c #52A052",
"3  c #0FD205",
"q  c #16FF23",
"Y  c #11CF18",
"M  c #050606",
"=  c #ACABAC",
"*  c #CFCDCF",
"-  c #D2D7D2",
"*. c #16FF39",
"R  c #24C60E",
"L  c #737373",
"N  c #DCDCDC",
"P  c #EBEBEB",
"7  c #B4B0B4",
"r. c #896541",
"v  c #39C339",
"k  c #00DD00",
"y  c #00DA00",
"t. c #B9A592",
"[  c #0B0B0D",
"9. c #E9E5E1",
"(  c #00FD00",
"c  c #43C540",
">  c #15D41B",
"X  c #CFE1D0",
":  c #25CD2E",
"d  c #D8D9D8",
"<  c #00D100",
"`  c #AA7536",
"!  c #9A9DA3",
"=. c #25C11F",
"8. c #764A20",
"x  c #64BE64",
"p  c #AAB6A3",
"s  c #D6D6D6",
"2. c #03B521",
"w  c #00EE00",
"+  c #A6E5A0",
"8  c #FEFCFE",
"5  c #9AE096",
"$  c #B9E8B7",
" . c #19E532",
"i  c #09E309",
"/  c #16D220",
"@. c #744112",
"b  c #5C9E53",
"+. c #B18A4B",
"0. c #B69A75",
":. c #B68E51",
"O. c #9F6B34",
"A  c #14CC12",
"|  c #6BAD75",
"u  c #00DC00",
"e  c #00D900",
"6  c #CBC9CB",
"]  c #AF8A5D",
"h  c #00FF08",
"U  c #519D51",
"g  c #15FF29",
"a  c #C1BBC2",
"r  c #00D300",
"_  c #C7B46B",
"}  c #ECEEEC",
"e. c #78491E",
"F  c #E7E7E7",
"q. c #651A01",
"^  c #9CBF9E",
",  c #11D911",
"1  c #00CD00",
"I  c #AABBAA",
"~  c #959595",
";  c #57AB5C",
"3. c #5CFE66",
",. c #76461A",
"$. c #DBD9D8",
"6. c #B0823B",
"w. c #692E07",
"@  c #A1E3A1",
"5. c #9E662A",
"<. c #D6C9BE",
"{  c #B6B7B8",
"E  c #B7B57B",
"S  c #5AAC5A",
"j  c #00EA00",
"4  c #4AD63F",
/* pixels */
"                                ",
"                              . ",
"    X o O + @ # $ % &       * = ",
"- ; : > , < 1 2 < 3 4 5   6 7 8 ",
"9 0 q w e < r t y u u i p a p s ",
"d f g h j k l z x c v b n b m M ",
"  N B V C Z A S D F G H G J K L ",
"    P I U Y w T R E W Q ! K ~   ",
"        ^ / ( ) _ ` ' ] [ {     ",
"    } |  ...X.o.O.+.@.#.$.      ",
"    %.&.*.=.-.;.:.>.,.<.        ",
"    1.2.3.4.5.6.7.8.9.          ",
"      0.q.w.e.r.t.              ",
"                                ",
"                                ",
"                                "
};
