/* XPM */
static const char *cross_cursor_xpm[] = {
/* columns rows colors chars-per-pixel */
"32 32 3 1",
"X c Black",
". c #FFFFFF",
"  c None",
/* pixels */
"                                ",
"                                ",
"                                ",
"                                ",
"                                ",
"                                ",
"               .X.              ",
"               .X.              ",
"               .X.              ",
"               .X.              ",
"               .X.              ",
"               .X.              ",
"               .X.              ",
"              ..X..             ",
"             ..XXX..            ",
"      ........X   X........     ",
"      XXXXXXXXX   XXXXXXXXX     ",
"      ........X   X........     ",
"             ..XXX..            ",
"              ..X..             ",
"               .X.              ",
"               .X.              ",
"               .X.              ",
"               .X.              ",
"               .X.              ",
"               .X.              ",
"               .X.              ",
"                                ",
"                                ",
"                                ",
"                                ",
"                                "
};
