/* XPM */
static const char *CURVE_xpm[]={
"16 16 39 1",
"      c none",
"0     c #81888A",
"1     c #A9ADAF",
"2     c #B1B4B6",
"3     c #696F73",
"4     c #BCBFBF",
"5     c #8B8D90",
"6     c #DADBDB",
"7     c #727579",
"8     c #C3C3C4",
"9     c #858A8C",
"a     c #CFD2D2",
"b     c #777C7E",
"c     c #CFCFD2",
"d     c #B8BBBB",
"e     c #4A5155",
"f     c #BFC0C2",
"g     c #D5D6D8",
"h     c #909294",
"i     c #6C6E72",
"j     c #D9DADB",
"k     c #BBBCBD",
"l     c #51575A",
"m     c #72767B",
"n     c #D8D9D9",
"o     c #CACBCB",
"p     c #797C7E",
"q     c #9FA1A3",
"r     c #A0A1A3",
"s     c #A7A9AA",
"t     c #929397",
"u     c #383B42",
"v     c #E7E7E7",
"w     c #9EA0A2",
"x     c #404648",
"y     c #C9CACB",
"z     c #B3B4B5",
"A     c #585A5E",
"B     c #36393C",
"      01        ",
"       23       ",
"        45      ",
"        67      ",
"        89      ",
"       abc      ",
"      def       ",
"    ghij        ",
"   klk          ",
"   mn           ",
"  op            ",
"  qr            ",
"  st            ",
"   uv           ",
"   wxy          ",
"    zAB         "};
