/* XPM */
static const char *ELLIPSE_xpm[]={
"16 16 158 2",
"      c none",
" 0    c #CCDAE4",
" 1    c #9CBBD1",
" 2    c #82A8C5",
" 3    c #6694B7",
" 4    c #6490B2",
" 5    c #789BBA",
" 6    c #93ACC3",
" 7    c #BFCDD9",
" 8    c #D2DEE7",
" 9    c #7BA7C5",
" a    c #9CBDD6",
" b    c #C9DCEC",
" c    c #DDECF9",
" d    c #F0FCFF",
" e    c #EBFAFF",
" f    c #D2E5FA",
" g    c #B8D0E9",
" h    c #8BAACB",
" i    c #6282A5",
" j    c #BEC9D6",
" k    c #C1D3E0",
" l    c #98BBD3",
" m    c #D2E2F1",
" n    c #F9FDFF",
" o    c #EEF9FF",
" p    c #E8F5FF",
" q    c #E2F1FF",
" r    c #DCF1FF",
" s    c #D9EEFF",
" t    c #D6EEFF",
" u    c #D0ECFF",
" v    c #AFD2F0",
" w    c #7A9DC1",
" x    c #9EAEC1",
" y    c #DDE5EB",
" z    c #6C9CBF",
" A    c #E5F0F9",
" B    c #F5FCFF",
" C    c #ECF6FF",
" D    c #E5F3FF",
" E    c #E0F1FF",
" F    c #DAEEFF",
" G    c #D7EBFF",
" H    c #D1EAFF",
" I    c #C9E7FF",
" J    c #C1E3FF",
" K    c #BCE2FF",
" L    c #B2DEFF",
" M    c #6D90B8",
" N    c #C5CDD7",
" O    c #9ABAD1",
" P    c #C9DCEB",
" Q    c #F8FCFF",
" R    c #EBF8FF",
" S    c #E7F2FF",
" T    c #E1F0FF",
" U    c #DBEEFF",
" V    c #D6EBFF",
" W    c #D0E9FF",
" X    c #C9E5FF",
" Y    c #C0E2FF",
" Z    c #B8DCFF",
" &    c #B0DAFF",
"0     c #AEDCFF",
"00    c #93BFEB",
"01    c #6E84A2",
"02    c #76A2C1",
"03    c #F1FBFF",
"04    c #EFF9FF",
"05    c #E7F3FF",
"06    c #D1E9FF",
"07    c #CBE7FF",
"08    c #C1E2FF",
"09    c #B9DDFF",
"0a    c #A9D7FF",
"0b    c #A8D8FF",
"0c    c #AADDFF",
"0d    c #4D6A90",
"0e    c #77A0BF",
"0f    c #EAF5FE",
"0g    c #E3F2FF",
"0h    c #DCEFFF",
"0i    c #D8EDFF",
"0j    c #D2EAFF",
"0k    c #CCE7FF",
"0l    c #C2E3FF",
"0m    c #BADDFF",
"0n    c #B1DAFF",
"0o    c #AAD7FF",
"0p    c #A5D4FF",
"0q    c #A2D4FF",
"0r    c #ABDDFF",
"0s    c #4C688E",
"0t    c #96B2CB",
"0u    c #BDD4E9",
"0v    c #EBF9FF",
"0w    c #DEF1FF",
"0x    c #CDE8FF",
"0y    c #C3E3FF",
"0z    c #BCDEFF",
"0A    c #B2DBFF",
"0B    c #ABD8FF",
"0C    c #A6D4FF",
"0D    c #A1D2FF",
"0E    c #A5D7FF",
"0F    c #91C0EC",
"0G    c #697F9E",
"0H    c #DCE3E9",
"0I    c #5F89AD",
"0J    c #D6E7F9",
"0K    c #E1F3FF",
"0L    c #D8ECFF",
"0M    c #CFE9FF",
"0N    c #C6E5FF",
"0O    c #BDDEFF",
"0P    c #B4DBFF",
"0Q    c #ACD8FF",
"0R    c #A8D7FF",
"0S    c #A1D4FF",
"0T    c #A4D7FF",
"0U    c #A6D9FF",
"0V    c #6A8DB8",
"0W    c #C1C9D4",
"0X    c #BAC8D7",
"0Y    c #84A5C3",
"0Z    c #BAD3EB",
"0&    c #D9F1FF",
"1     c #CCEAFF",
"10    c #C2E5FF",
"11    c #B9DEFF",
"12    c #B0DBFF",
"13    c #AAD9FF",
"14    c #A6D7FF",
"15    c #A7D9FF",
"16    c #95C7F1",
"17    c #6E95C0",
"18    c #9AA9BD",
"19    c #CBD4DD",
"1a    c #6382A4",
"1b    c #83A1C2",
"1c    c #A4C5E5",
"1d    c #B8DDFF",
"1e    c #BAE5FF",
"1f    c #B2E2FF",
"1g    c #A7D8FF",
"1h    c #8DBBE7",
"1i    c #739BC3",
"1j    c #556D91",
"1k    c #B8C1CF",
"1l    c #BCC7D3",
"1m    c #8397B0",
"1n    c #5A7497",
"1o    c #4B658C",
"1p    c #4B668C",
"1q    c #546D91",
"1r    c #7D90AB",
"1s    c #AFBBCB",
"                                ",
"                                ",
"         0 1 2 3 4 5 6 7        ",
"     8 9 a b c d e f g h i j    ",
"   k l m n o p q r s t u v w x  ",
" y z A B C D E F G H I J K L M N",
" O P Q R S T U V W X Y Z &0 0001",
"02030405 T U G06070809 &0a0b0c0d",
"0e0f C0g0h0i0j0k0l0m0n0o0p0q0r0s",
"0t0u0v0w s0j0x0y0z0A0B0C0D0E0F0G",
"0H0I0J0K0L0M0N0O0P0Q0R0S0T0U0V0W",
"  0X0Y0Z0&1 101112131415161718  ",
"    191a1b1c1d1e1f1g1h1i1j1k    ",
"        1l1m1n1o1p1q1r1s        ",
"                                ",
"                                "};
