/* XPM */
static const char *ellipse_xpm[] = {
/* columns rows colors chars-per-pixel */
"16 16 3 1",
". c Black",
"  c None",
"X c #00FFFF",
/* pixels */
"                ",
"                ",
"                ",
"      ....      ",
"   ...XXXX...   ",
"  .XXXXXXXXXX.  ",
" .XXXXXXXXXXXX. ",
" .XXXXXXXXXXXX. ",
" .XXXXXXXXXXXX. ",
" .XXXXXXXXXXXX. ",
"  .XXXXXXXXXX.  ",
"   ...XXXX...   ",
"      ....      ",
"                ",
"                ",
"                "
};
