/* XPM */
static const char *ERASER_xpm[]={
"16 16 106 2",
"      c none",
" 0    c #9E4C41",
" 1    c #9A473D",
" 2    c #AD6C62",
" 3    c #C29993",
" 4    c #D8C0BD",
" 5    c #FBFBFB",
" 6    c #8F3B2F",
" 7    c #E96C5C",
" 8    c #EC6F5D",
" 9    c #D96352",
" a    c #C3574A",
" b    c #AC4D40",
" c    c #993F32",
" d    c #A45B4E",
" e    c #913C31",
" f    c #F67361",
" g    c #FC7665",
" h    c #FB7664",
" i    c #FB7665",
" j    c #FD7765",
" k    c #FF7967",
" l    c #F1715F",
" m    c #913B30",
" n    c #9C4537",
" o    c #F57363",
" p    c #F97564",
" q    c #F97463",
" r    c #FA7564",
" s    c #9E4235",
" t    c #903C30",
" u    c #FAFAFA",
" v    c #A84E42",
" w    c #F67362",
" x    c #FB7564",
" y    c #F87463",
" z    c #F37160",
" A    c #9D4135",
" B    c #B44F41",
" C    c #913C30",
" D    c #B45A4E",
" E    c #F47262",
" F    c #A14437",
" G    c #B85244",
" H    c #BB5446",
" I    c #9A4C41",
" J    c #C36556",
" K    c #F57565",
" L    c #F97464",
" M    c #F87364",
" N    c #FA7463",
" O    c #F37261",
" P    c #AA4E40",
" Q    c #BF594A",
" R    c #BF574A",
" S    c #994C41",
" T    c #DDACA4",
" U    c #D87462",
" V    c #FE8A70",
" W    c #FC856D",
" X    c #FA816C",
" Y    c #FA7E6A",
" Z    c #FB7D67",
" &    c #F37965",
"0     c #B85A4D",
"00    c #CC6351",
"01    c #CA5F4F",
"02    c #A04F45",
"03    c #D07567",
"04    c #F8A07C",
"05    c #FFA880",
"06    c #FDA27D",
"07    c #FD9D7B",
"08    c #FD9676",
"09    c #FC8F72",
"0a    c #C46759",
"0b    c #D56A5A",
"0c    c #D46757",
"0d    c #AD594E",
"0e    c #E8CBC8",
"0f    c #D97D69",
"0g    c #FFAA81",
"0h    c #FFA680",
"0i    c #FFA981",
"0j    c #EA9274",
"0k    c #D86E5D",
"0l    c #DF705E",
"0m    c #BB655B",
"0n    c #D68D81",
"0o    c #F19676",
"0p    c #D57A65",
"0q    c #E47362",
"0r    c #C87062",
"0s    c #F1EDEC",
"0t    c #D27E6F",
"0u    c #CB6C5F",
"0v    c #D87C6A",
"0w    c #E88C71",
"0x    c #F49B7A",
"0y    c #F69E7B",
"0z    c #CE7266",
"0A    c #E9D0CC",
"0B    c #DDA59E",
"0C    c #D27E70",
"0D    c #CB6D5F",
"0E    c #CD7062",
"                                ",
"                 0 1 2 3 4     5",
"               6 7 8 9 a b c d  ",
"             e f g h i j k l m  ",
"           n o i p q r g f s t u",
"         v w x q y q x z A B C  ",
"       D w r q y q r E F G H I  ",
"     J K r L M y N O P Q R S   u",
"   T U V W X Y Z &0 000102      ",
"  030405060708090a0b0c0d        ",
"0e0f0g050h050i0j0k0l0m          ",
"0n0o0g0i05050g0p0q0r            ",
"0s0t0u0v0w0x0y0u0z              ",
"      0A0B0C0D0E                ",
"                                ",
"                                "};
