/* XPM */
static const char *FILL_xpm[]={
"16 16 128 2",
"      c none",
" 0    c #EFEFEF",
" 1    c #C1C1C1",
" 2    c #EBEBEB",
" 3    c #BBBBBB",
" 4    c #B9B9B9",
" 5    c #9B9C9C",
" 6    c #AFAEAE",
" 7    c #9A9B9B",
" 8    c #BCBBBB",
" 9    c #919296",
" a    c #FCFEFF",
" b    c #9C9D9C",
" c    c #CADEEF",
" d    c #9A999A",
" e    c #838B91",
" f    c #FEFEFE",
" g    c #FB7665",
" h    c #8D8D8C",
" i    c #ECF6FE",
" j    c #CBDEED",
" k    c #9A9998",
" l    c #FC928A",
" m    c #FE948B",
" n    c #FE331D",
" o    c #708192",
" p    c #EFF6FA",
" q    c #FB7564",
" r    c #FBFAFA",
" s    c #8C8C8B",
" t    c #FAFAFA",
" u    c #EBF3FC",
" v    c #CADEED",
" w    c #FC958C",
" x    c #F93723",
" y    c #FC3722",
" z    c #A60404",
" A    c #CEE5F4",
" B    c #E9F4FC",
" C    c #E4E8EC",
" D    c #F4F5F5",
" E    c #8C8B8B",
" F    c #C3D9E6",
" G    c #F8F8F6",
" H    c #ECF4FB",
" I    c #CDDFED",
" J    c #9A9A99",
" K    c #FA3C26",
" L    c #FD3D27",
" M    c #A80C0C",
" N    c #9AC8E8",
" O    c #C2DFF3",
" P    c #D5E9F5",
" Q    c #C1CBD1",
" R    c #ABA4A4",
" S    c #FA7463",
" T    c #DCEDFC",
" U    c #EDECEB",
" V    c #BF594A",
" W    c #EDF5FD",
" X    c #CEE0EE",
" Y    c #9B9C9B",
" Z    c #FE402B",
" &    c #A91112",
"0     c #AE0D0B",
"00    c #84B3D3",
"01    c #A0C6E3",
"02    c #BEDAED",
"03    c #C1D0DD",
"04    c #99989C",
"05    c #ABA3A2",
"06    c #F2F1F1",
"07    c #F5F5F4",
"08    c #CA5F4F",
"09    c #A04F45",
"0a    c #EFF8FE",
"0b    c #D2E3F1",
"0c    c #9D9E9D",
"0d    c #AA1515",
"0e    c #AE1312",
"0f    c #4F6180",
"0g    c #86ADCD",
"0h    c #9FC4E0",
"0i    c #BBD4EA",
"0j    c #BECFDC",
"0k    c #BFC5CF",
"0l    c #E0E4E9",
"0m    c #FAFCFC",
"0n    c #AD594E",
"0o    c #C4C8CC",
"0p    c #9FA0A1",
"0q    c #AC1616",
"0r    c #AF1412",
"0s    c #525E7C",
"0t    c #86ACCB",
"0u    c #9EC3DF",
"0v    c #BBD5EC",
"0w    c #D2E5F3",
"0x    c #E1EDF5",
"0y    c #F0F4FB",
"0z    c #FDFDFF",
"0A    c #C6C6CA",
"0B    c #9A9B9D",
"0C    c #AF1514",
"0D    c #85ABCA",
"0E    c #9ABFDE",
"0F    c #B8D3EA",
"0G    c #D0E1F1",
"0H    c #E0ECF6",
"0I    c #F0F8FE",
"0J    c #F1F2F6",
"0K    c #8F9199",
"0L    c #515E7C",
"0M    c #85A8C9",
"0N    c #99BEDE",
"0O    c #B5D2E9",
"0P    c #D1E3F3",
"0Q    c #D8E4EE",
"0R    c #7F8491",
"0S    c #515D7C",
"0T    c #83A8C8",
"0U    c #99BFDF",
"0V    c #AEC9E0",
"0W    c #71798C",
"0X    c #515E7D",
"0Y    c #7A98B6",
"0Z    c #606D85",
"0&    c #737E99",
"                 0 1 2          ",
"                 3   4          ",
"               5 6 7 8          ",
"             9 a b c d          ",
"           e f g h i j k        ",
"   l m n o p q r s t u v d      ",
" w x y z A B C D E F G H I J    ",
" K L M N O P Q R S T U V W X Y  ",
" Z &0 000102030405060708090a0b0c",
"0d0e  0f0g0h0i0j0k0l0m0n    0o0p",
"0q0r    0s0t0u0v0w0x0y0z  0A0B  ",
"  0C      0s0D0E0F0G0H0I0J0K    ",
"            0L0M0N0O0P0Q0R      ",
"              0S0T0U0V0W        ",
"                0X0Y0Z          ",
"                  0&            "};
