/* XPM */
static const char *LASSO_xpm[]={
"16 16 26 1",
"      c none",
"0     c #535353",
"1     c #515151",
"2     c #525252",
"3     c #FAFAFA",
"4     c #414242",
"5     c #535352",
"6     c #393939",
"7     c #FFFFFF",
"8     c #4F4E4E",
"9     c #FBFBFB",
"a     c #AFAFAF",
"b     c #B0B0B0",
"c     c #F8F8F8",
"d     c #1E1E1E",
"e     c #424242",
"f     c #969696",
"g     c #3E3E3E",
"h     c #000000",
"i     c #373737",
"j     c #2D2F2D",
"k     c #1C1F1C",
"l     c #A0A0A1",
"m     c #030303",
"n     c #010101",
"o     c #B3B3B3",
"                ",
"   001          ",
"  2 003         ",
" 0     4        ",
" 50     67      ",
" 85    9ab1     ",
"3 3     cad3    ",
" e         f3   ",
" ge        cfh7 ",
" ig          ah7",
" ji           hh",
"  k          3 3",
"   3    3   3 h ",
"  clmnhh hhh ho9",
"   9lmnh3 hh3 9 ",
"                "};
