/* XPM */
static const char *LINE_xpm[]={
"16 16 24 1",
"      c #A9AFB1",
"0     c #B6B8BB",
"1     c none",
"2     c #8B8F92",
"3     c #B0B4B5",
"4     c #808489",
"5     c #A9ADAF",
"6     c #767B7D",
"7     c #A0A2A5",
"8     c #6B6D70",
"9     c #979A9E",
"a     c #5E6165",
"b     c #909294",
"c     c #525659",
"d     c #898C8D",
"e     c #484A4E",
"f     c #818388",
"g     c #404147",
"h     c #7D7E81",
"i     c #393C41",
"j     c #7C7D80",
"k     c #363A3F",
"l     c #808283",
"m     c #C6C6C7",
" 011111111111111",
"1231111111111111",
"1145111111111111",
"1116711111111111",
"1111891111111111",
"11111ab111111111",
"111111cd11111111",
"1111111ef1111111",
"11111111gh111111",
"111111111ij11111",
"1111111111ij1111",
"11111111111ij111",
"111111111111ij11",
"1111111111111kl1",
"11111111111111m1",
"1111111111111111"};
