/* XPM */
static const char *PEN_xpm[]={
"16 16 91 2",
"      c none",
" 0    c #B2A1A1",
" 1    c #B39B9B",
" 2    c #A89B9C",
" 3    c #A91F1F",
" 4    c #AB1F1F",
" 5    c #A27E7E",
" 6    c #AAAAAA",
" 7    c #D2BEB9",
" 8    c #A23F3E",
" 9    c #CC4140",
" a    c #E25453",
" b    c #AEA5A5",
" c    c #8E908E",
" d    c #90A08C",
" e    c #E0DEE0",
" f    c #DADFDD",
" g    c #E07C7B",
" h    c #A44E50",
" i    c #ABABAB",
" j    c #A8A29C",
" k    c #307240",
" l    c #003700",
" m    c #77957F",
" n    c #D4D1D3",
" o    c #9D9593",
" p    c #959595",
" q    c #A3A3A3",
" r    c #D59E3E",
" s    c #FFFEAB",
" t    c #3C7E53",
" u    c #003B00",
" v    c #707B6C",
" w    c #8E8E8E",
" x    c #A2A2A2",
" y    c #DFBC5E",
" z    c #FFF6A0",
" A    c #FFF8A9",
" B    c #FAC94F",
" C    c #426C47",
" D    c #8C8C8C",
" E    c #B6B3B3",
" F    c #DFBC5F",
" G    c #FCD36D",
" H    c #FFEF9F",
" I    c #EFC34E",
" J    c #DAAF42",
" K    c #817F7F",
" L    c #B5B2B2",
" M    c #E0BD5F",
" N    c #F9D57E",
" O    c #FFF0A0",
" P    c #EEBF23",
" Q    c #D9AC1C",
" R    c #706666",
" S    c #E5E5E5",
" T    c #AE7D4E",
" U    c #FFD593",
" V    c #FFF1A0",
" W    c #EEBF1A",
" X    c #D9AA14",
" Y    c #6D6564",
" Z    c #E1E1E1",
" &    c #8F7C6A",
"0     c #FFD290",
"00    c #FFDEA5",
"01    c #E8B134",
"02    c #D09F2C",
"03    c #706766",
"04    c #B3B2B2",
"05    c #E8AE6E",
"06    c #FFD895",
"07    c #FFB975",
"08    c #9E6B39",
"09    c #666161",
"0a    c #AD8359",
"0b    c #FFD389",
"0c    c #CA8A50",
"0d    c #6A533E",
"0e    c #909090",
"0f    c #7A7979",
"0g    c #C49363",
"0h    c #85603A",
"0i    c #797979",
"0j    c #B9B9B9",
"0k    c #B0B0B0",
"0l    c #0C0E10",
"0m    c #656464",
"0n    c #CCCCCC",
"0o    c #D4D4D4",
"0p    c #D8D8D8",
"                         0 1    ",
"                       2 3 4 5  ",
"                     6 7 8 9 a b",
"                   c d e f g h i",
"                 j k l m n o p  ",
"               q r s t u v w    ",
"             x y z A B C D      ",
"           E F G H I J K        ",
"         L M N O P Q R          ",
"       S T U V W X Y            ",
"     Z &0 00010203              ",
"    040506070809                ",
"    0a0b0c0d0e                  ",
"  0f0g0h0i0j                    ",
"0k0l0m0n                        ",
"0o0n0p                          "};
