/* XPM */
static const char *PIPETTE_xpm[]={
"16 16 74 2",
"      c none",
" 0    c #B9C3D1",
" 1    c #8D9DB0",
" 2    c #8494A5",
" 3    c #B0BCCA",
" 4    c #A1ADC3",
" 5    c #A4B9E6",
" 6    c #82A0E1",
" 7    c #66707C",
" 8    c #B1BDCB",
" 9    c #A5BBEB",
" a    c #84A3EB",
" b    c #4773BB",
" c    c #4E5C6C",
" d    c #9AABBF",
" e    c #93A4BA",
" f    c #A2ADC4",
" g    c #84A3EA",
" h    c #4773BA",
" i    c #335170",
" j    c #626B74",
" k    c #ADB9CB",
" l    c #BBC2CF",
" m    c #C1CBE9",
" n    c #4973BA",
" o    c #334F6F",
" p    c #575F69",
" q    c #909DB1",
" r    c #90A1C0",
" s    c #84A3EC",
" t    c #344F6F",
" u    c #545C65",
" v    c #A4A9AF",
" w    c #F8F9F6",
" x    c #8693A4",
" y    c #577198",
" z    c #063D7B",
" A    c #444C56",
" B    c #A1A6AD",
" C    c #FCFBFA",
" D    c #FEFFFF",
" E    c #9DBFDA",
" F    c #575F6B",
" G    c #163653",
" H    c #3C3F44",
" I    c #FBFAFA",
" J    c #FCFFFF",
" K    c #9CBFDE",
" L    c #717473",
" M    c #4A5159",
" N    c #6D7174",
" O    c #A2A8AE",
" P    c #FCFAFA",
" Q    c #FBFFFF",
" R    c #9BBEDD",
" S    c #6F7272",
" T    c #A3A9AF",
" U    c #CBCDCF",
" V    c #9BBEDE",
" W    c #6E7271",
" X    c #AEB2B8",
" Y    c #CCCED0",
" Z    c #FDFFFF",
" &    c #9CBEDE",
"0     c #C6CACD",
"00    c #BABCC0",
"01    c #9CBFDF",
"02    c #959BA0",
"03    c #F9FEFF",
"04    c #899CAD",
"05    c #707475",
"06    c #999EA2",
"07    c #7C7F83",
"08    c #A2A5A6",
"                                ",
"                       0 1 2    ",
"                     3 4 5 6 7  ",
"                   8 4 9 a b c  ",
"               d e f 9 g h i j  ",
"             k l m 9 g n o p    ",
"               q r s n t u      ",
"             v w x y z A        ",
"           B C D E F G H        ",
"         B I J K L   M N        ",
"       O P Q R S                ",
"     T U J V W                  ",
"   X Y Z & S                    ",
"0 00 D01 S                      ",
"02030405                        ",
"060708                          "};
