/* XPM */
static const char *POLYGON_xpm[]={
"16 16 112 2",
"      c none",
" 0    c #EAEDEF",
" 1    c #6998BB",
" 2    c #6694B8",
" 3    c #648FB2",
" 4    c #628CAE",
" 5    c #5C85AA",
" 6    c #587EA5",
" 7    c #52789D",
" 8    c #C1CCD8",
" 9    c #ADC5D7",
" a    c #B7D0E3",
" b    c #F8FFFF",
" c    c #EFFCFF",
" d    c #EAFBFF",
" e    c #E8F9FF",
" f    c #DBF1FF",
" g    c #5F80A2",
" h    c #6E99BC",
" i    c #EEFAFF",
" j    c #EAF6FF",
" k    c #E0F2FF",
" l    c #DDF1FF",
" m    c #DBF2FF",
" n    c #99BAD7",
" o    c #A4B2C6",
" p    c #BECFDC",
" q    c #A4BED6",
" r    c #ECF9FF",
" s    c #E0F1FF",
" t    c #DAEEFF",
" u    c #D6EDFF",
" v    c #D7F0FF",
" w    c #6383A7",
" x    c #E9EAED",
" y    c #7A9EBC",
" z    c #DAEAF9",
" A    c #E3F3FF",
" B    c #D6EBFF",
" C    c #D2EBFF",
" D    c #ABCCEA",
" E    c #8397B0",
" F    c #CFDAE3",
" G    c #8EADC9",
" H    c #E9F9FF",
" I    c #DCF0FF",
" J    c #D0E9FF",
" K    c #C8E8FF",
" L    c #7799BD",
" M    c #7C9CC1",
" N    c #51678D",
" O    c #4C678C",
" P    c #48658B",
" Q    c #4E6A8F",
" R    c #8CA9C2",
" S    c #C5D9EC",
" T    c #E1F2FF",
" U    c #D7ECFF",
" V    c #D1E9FF",
" W    c #C6E4FF",
" X    c #BEE0FF",
" Y    c #B8DEFF",
" Z    c #B1DEFF",
" &    c #AFDEFF",
"0     c #ACDEFF",
"00    c #ABDEFF",
"01    c #546D93",
"02    c #E5E9EC",
"03    c #7497B8",
"04    c #E7F8FF",
"05    c #DAEDFF",
"06    c #D1EAFF",
"07    c #C9E5FF",
"08    c #BEE1FF",
"09    c #B6DDFF",
"0a    c #ADD9FF",
"0b    c #A9D8FF",
"0c    c #A2D6FF",
"0d    c #A5D7FF",
"0e    c #A6D9FF",
"0f    c #556E93",
"0g    c #9DB4C9",
"0h    c #AFC7DE",
"0i    c #E2F6FF",
"0j    c #D7EDFF",
"0k    c #CEE9FF",
"0l    c #C3E5FF",
"0m    c #B9E0FF",
"0n    c #AFDCFF",
"0o    c #A9D9FF",
"0p    c #A4D4FF",
"0q    c #A2D4FF",
"0r    c #EDEEF0",
"0s    c #5D83A7",
"0t    c #EDFDFF",
"0u    c #E3F9FF",
"0v    c #D9F2FF",
"0w    c #CEEEFF",
"0x    c #C3EAFF",
"0y    c #BBE4FF",
"0z    c #B2E1FF",
"0A    c #ACDDFF",
"0B    c #AADCFF",
"0C    c #AADDFF",
"0D    c #A8BBCD",
"0E    c #527499",
"0F    c #517096",
"0G    c #4D6B91",
"0H    c #4C698F",
"0I    c #4C668C",
"0J    c #4B668C",
"0K    c #48658C",
"                                ",
"         0 1 2 3 4 5 6 7 8      ",
"         9 a b c d e f g        ",
"         h i j k l m n o        ",
"       p q r s t u v w x        ",
"       y z A t B C D E          ",
"     F G H I B J K L M N O P Q  ",
"     R S T U V W X Y Z &0 0001  ",
"  02030405060708090a0b0c0d0e0f  ",
"  0g0h0i0j0k0l0m0n0o0p0q0d0e0f  ",
"0r0s0t0u0v0w0x0y0z0A0B0C0 0001  ",
"0D 70E0F0G0H0I0I0I O O O0J0K Q  ",
"                                ",
"                                ",
"                                ",
"                                "};
