/* XPM */
static const char *polygon_xpm[] = {
/* columns rows colors chars-per-pixel */
"16 16 3 1",
". c Black",
"  c None",
"X c #00FFFF",
/* pixels */
"                ",
"                ",
"  ............  ",
"  .XXXXXXXXXX.  ",
"   .XXXXXXXXX.  ",
"    .XXXXXXXX.  ",
"     .XXXXXXX.  ",
"      .XXXXXX.  ",
"       .XXXXX.  ",
"        .XXXX.  ",
"        .XXXX.  ",
"        .XXXX.  ",
"        .XXXX.  ",
"        .XXXX.  ",
"        ......  ",
"                "
};
