/* XPM */
static const char *RECT_xpm[]={
"16 16 124 2",
"      c none",
" 0    c #689ABE",
" 1    c #6A9BBF",
" 2    c #6B9BBF",
" 3    c #6B9CBF",
" 4    c #6A99BD",
" 5    c #6896BA",
" 6    c #6693B6",
" 7    c #648FB1",
" 8    c #5F89AC",
" 9    c #5D84A8",
" a    c #5A7FA4",
" b    c #557A9E",
" c    c #587A9D",
" d    c #F9FFFF",
" e    c #F2FDFF",
" f    c #EEFBFF",
" g    c #E9F9FF",
" h    c #E3F3FF",
" i    c #DDF2FF",
" j    c #D7EFFF",
" k    c #CEEDFF",
" l    c #C2E8FF",
" m    c #5A789B",
" n    c #F3FBFF",
" o    c #EBF6FF",
" p    c #E7F3FF",
" q    c #E0F1FF",
" r    c #DBEFFF",
" s    c #D4ECFF",
" t    c #CEE9FF",
" u    c #C3E5FF",
" v    c #BDE2FF",
" w    c #B6DEFF",
" x    c #587698",
" y    c #FBFFFF",
" z    c #ECF6FF",
" A    c #E4F1FF",
" B    c #DDEFFF",
" C    c #D9EDFF",
" D    c #D2EAFF",
" E    c #CDE7FF",
" F    c #C1E2FF",
" G    c #B9DDFF",
" H    c #B4DCFF",
" I    c #ADDAFF",
" J    c #577295",
" K    c #6A98BB",
" L    c #F6FEFF",
" M    c #E8F5FF",
" N    c #DEF0FF",
" O    c #D4EAFF",
" P    c #CEE8FF",
" Q    c #C3E3FF",
" R    c #BADDFF",
" S    c #B1DAFF",
" T    c #ABDAFF",
" U    c #A7D8FF",
" V    c #566E93",
" W    c #6895B8",
" X    c #F2FCFF",
" Y    c #E2F2FF",
" Z    c #DAEEFF",
" &    c #D4EBFF",
"0     c #CFE8FF",
"00    c #C5E4FF",
"01    c #BCDEFF",
"02    c #B2DAFF",
"03    c #AAD7FF",
"04    c #A4D6FF",
"05    c #566F93",
"06    c #6591B2",
"07    c #D6EBFF",
"08    c #D0E9FF",
"09    c #C6E4FF",
"0a    c #BDDEFF",
"0b    c #B4DBFF",
"0c    c #ABD8FF",
"0d    c #A6D4FF",
"0e    c #A2D3FF",
"0f    c #A4D7FF",
"0g    c #628BAF",
"0h    c #DAEDFF",
"0i    c #D1EAFF",
"0j    c #C8E5FF",
"0k    c #BEE1FF",
"0l    c #B6DCFF",
"0m    c #ACD8FF",
"0n    c #A7D6FF",
"0o    c #A0D2FF",
"0p    c #A2D4FF",
"0q    c #5C85AA",
"0r    c #E8FAFF",
"0s    c #D8EEFF",
"0t    c #B9DEFF",
"0u    c #AFDCFF",
"0v    c #A9D9FF",
"0w    c #A4D4FF",
"0x    c #A1D4FF",
"0y    c #A5D7FF",
"0z    c #A6D8FF",
"0A    c #556E93",
"0B    c #5980A5",
"0C    c #E9FDFF",
"0D    c #DBF3FF",
"0E    c #C2E9FF",
"0F    c #BBE4FF",
"0G    c #B2E1FF",
"0H    c #ACDDFF",
"0I    c #AADCFF",
"0J    c #AADDFF",
"0K    c #ACDEFF",
"0L    c #ABDEFF",
"0M    c #546D93",
"0N    c #51789E",
"0O    c #52769A",
"0P    c #517097",
"0Q    c #4E6D93",
"0R    c #4C6A90",
"0S    c #4C678C",
"0T    c #4C668C",
"0U    c #4B668C",
"0V    c #48658C",
"0W    c #4E6A8F",
"                                ",
"   0 1 2 3 4 5 6 7 8 9 a b c    ",
"   1     d e f g h i j k l m    ",
"   2   n o p q r s t u v w x    ",
"   2 y z A B C D E F G H I J    ",
"   K L M N C O P Q R S T U V    ",
"   W X Y Z &0 00010203 U0405    ",
"  06 f N0708090a0b0c0d0e0f05    ",
"  0g g0h0i0j0k0l0m0n0o0p0f05    ",
"  0q0r0s t u0t0u0v0w0x0y0z0A    ",
"  0B0C0D k0E0F0G0H0I0J0K0L0M    ",
"  0N0O0P0Q0R0S0T0S0S0S0U0V0W    ",
"                                ",
"                                ",
"                                ",
"                                "};
