/* XPM */
static const char *right_hair_xpm[] = {
/* columns rows colors chars-per-pixel */
"8 8 2 1",
". c #29349C",
"  c None",
/* pixels */
"        ",
" .      ",
"  .     ",
"   .    ",
"    .   ",
"     .  ",
"      . ",
"        "
};
