/* XPM */
static const char *right_hair_xpm[] = {
/* columns rows colors chars-per-pixel */
"8 8 2 1",
"  c #FFFFFF",
". c #2F3699",
/* pixels */
"        ",
"      . ",
"     .  ",
"    .   ",
"   .    ",
"  .     ",
" .      ",
"        "
};
