/* XPM */
static const char *right_xpm[] = {
/* columns rows colors chars-per-pixel */
"16 16 4 1",
"X c Black",
"o c #FFFFFF",
". c None",
"  c #010000",
/* pixels */
"................",
".......X........",
"......XX........",
".....XoX........",
"....XooXXXXXXXX.",
"...XooooooooooX.",
"..XoooooooooooX.",
"..XoooooooooooX.",
"...XooooooooooX.",
"....XooXXXooooX.",
".....XoX.XooooX.",
"......XX.XooooX.",
".......X.XooooX.",
".........XXXXXX.",
"................",
"................"
};
