/* XPM */
static const char *RRECT_xpm[]={
"16 16 146 2",
"      c none",
" 0    c #B7CCDB",
" 1    c #7FA9C7",
" 2    c #6A9BBF",
" 3    c #6B9CBF",
" 4    c #6A99BD",
" 5    c #6896BA",
" 6    c #6693B6",
" 7    c #648FB1",
" 8    c #5F89AC",
" 9    c #5C84A8",
" a    c #597FA4",
" b    c #6B8BAB",
" c    c #A6B7C8",
" d    c #B0C8DA",
" e    c #B0CCDE",
" f    c #F3FAFC",
" g    c #7BA7C5",
" h    c #FEFFFF",
" i    c #F9FFFF",
" j    c #F3FDFF",
" k    c #EFFBFF",
" l    c #EAFAFF",
" m    c #E4F5FF",
" n    c #DEF2FF",
" o    c #D7F0FF",
" p    c #BDDCFD",
" q    c #82A6C9",
" r    c #98A9BE",
" s    c #77A4C3",
" t    c #FDFEFF",
" u    c #FDFFFF",
" v    c #F6FDFF",
" w    c #F0F9FF",
" x    c #EBF6FF",
" y    c #E7F3FF",
" z    c #E0F1FF",
" A    c #DBEFFF",
" B    c #D4ECFF",
" C    c #CEEAFF",
" D    c #C3E5FF",
" E    c #BEE3FF",
" F    c #BAE3FF",
" G    c #4F6C90",
" H    c #73A1C2",
" I    c #FCFEFF",
" J    c #EEF6FF",
" K    c #E9F3FF",
" L    c #E3F1FF",
" M    c #DDEFFF",
" N    c #DAEDFF",
" O    c #D2EAFF",
" P    c #CDE7FF",
" Q    c #C1E2FF",
" R    c #BADEFF",
" S    c #B4DCFF",
" T    c #B4E2FF",
" U    c #4E6C93",
" V    c #74A1C1",
" W    c #F8FDFF",
" X    c #F1F9FF",
" Y    c #E9F5FF",
" Z    c #E4F2FF",
" &    c #DEF0FF",
"0     c #D9EDFF",
"00    c #D4EAFF",
"01    c #CEE8FF",
"02    c #C3E3FF",
"03    c #BADDFF",
"04    c #B1DAFF",
"05    c #ABD9FF",
"06    c #ADE0FF",
"07    c #4F6C93",
"08    c #729DBF",
"09    c #F3FCFF",
"0a    c #EDF8FF",
"0b    c #E7F2FF",
"0c    c #DAEEFF",
"0d    c #D4EBFF",
"0e    c #CFE8FF",
"0f    c #C5E4FF",
"0g    c #BCDEFF",
"0h    c #B2DAFF",
"0i    c #AAD7FF",
"0j    c #A7D7FF",
"0k    c #A9DBFF",
"0l    c #6F9ABC",
"0m    c #EFFAFF",
"0n    c #E2F0FF",
"0o    c #DBEEFF",
"0p    c #D6EBFF",
"0q    c #D0E9FF",
"0r    c #C6E4FF",
"0s    c #BDDEFF",
"0t    c #B4DBFF",
"0u    c #ABD8FF",
"0v    c #A6D4FF",
"0w    c #A2D3FF",
"0x    c #A9DCFF",
"0y    c #4F6C94",
"0z    c #6C96B7",
"0A    c #ECF8FF",
"0B    c #DCEFFF",
"0C    c #D8EBFF",
"0D    c #C8E5FF",
"0E    c #BEE1FF",
"0F    c #B6DCFF",
"0G    c #ACD8FF",
"0H    c #A7D6FF",
"0I    c #A0D2FF",
"0J    c #A2D4FF",
"0K    c #AADCFF",
"0L    c #6D94B6",
"0M    c #E5F3FF",
"0N    c #E4F6FF",
"0O    c #DCF0FF",
"0P    c #CEE9FF",
"0Q    c #B9DEFF",
"0R    c #AFDCFF",
"0S    c #A9D9FF",
"0T    c #A4D4FF",
"0U    c #A6D8FF",
"0V    c #4E698E",
"0W    c #A8BCCF",
"0X    c #9CB8D1",
"0Y    c #D8EDFF",
"0Z    c #E1F6FF",
"0&    c #D9F2FF",
"1     c #CEEEFF",
"10    c #C3EAFF",
"11    c #BBE4FF",
"12    c #B2E1FF",
"13    c #ACDDFF",
"14    c #ABDDFF",
"15    c #A0D3FF",
"16    c #749CC6",
"17    c #90A1B8",
"18    c #9EB2C7",
"19    c #6483A5",
"1a    c #517097",
"1b    c #4E6D93",
"1c    c #4C6A90",
"1d    c #4C678C",
"1e    c #4C668C",
"1f    c #4B668C",
"1g    c #5A7395",
"                                ",
"                                ",
"   0 1 2 3 4 5 6 7 8 9 a b c    ",
" d e f g h i j k l m n o p q r  ",
" s t u v w x y z A B C D E F G  ",
" H I v J K L M N O P Q R S T U  ",
" V W X Y Z &0 0001020304050607  ",
"08090a0b &0c0d0e0f0g0h0i0j0k07  ",
"0l0m Y0n0o0p0q0r0s0t0u0v0w0x0y  ",
"0z0A y0B0C0q0D0E0F0G0H0I0J0K07  ",
"0L0M0N0O B0P D0Q0R0S0T0J0U0x0V  ",
"0W0X0Y0Z0&1 101112130K14151617  ",
"  18191a1b1c1d1e1e1d1d1f1g17    ",
"                                ",
"                                ",
"                                "};
