/* XPM */
static const char *roundedrect_xpm[] = {
/* columns rows colors chars-per-pixel */
"16 16 3 1",
". c Black",
"  c None",
"X c #00FFFF",
/* pixels */
"                ",
"                ",
"   ..........   ",
"  .XXXXXXXXXX.  ",
" .XXXXXXXXXXXX. ",
" .XXXXXXXXXXXX. ",
" .XXXXXXXXXXXX. ",
" .XXXXXXXXXXXX. ",
" .XXXXXXXXXXXX. ",
" .XXXXXXXXXXXX. ",
" .XXXXXXXXXXXX. ",
"  .XXXXXXXXXX.  ",
"   ..........   ",
"                ",
"                ",
"                "
};
