/* XPM */
static const char *SEL_xpm[]={
"16 16 30 1",
"      c none",
"0     c #FBFBFB",
"1     c #535353",
"2     c #FAFAFA",
"3     c #5A5A5A",
"4     c #4B4C4C",
"5     c #4A4949",
"6     c #424242",
"7     c #414041",
"8     c #3C3C3C",
"9     c #343433",
"a     c #313131",
"b     c #525252",
"c     c #414242",
"d     c #242424",
"e     c #4F4E4E",
"f     c #3C3B3C",
"g     c #0B0B0B",
"h     c #2F302F",
"i     c #000000",
"j     c #3E3E3E",
"k     c #171616",
"l     c #373737",
"m     c #0A0A0A",
"n     c #AFAFAF",
"o     c #FFFFFF",
"p     c #F8F8F8",
"q     c #A0A0A1",
"r     c #030303",
"s     c #B3B3B3",
"                ",
" 0 112  2   2  0",
"  331145 678 9a ",
" 1b  2 c2   2 d ",
" 212         2 2",
" ef           g ",
"  h           i ",
" 2 2         2 2",
" jk          ii ",
" lm          nio",
" 2l2         2i2",
"  i  2  2   22i2",
"  iii ii2iii2ii ",
" 0pqr2ii2iii2is0",
"                ",
"                "};
