/* XPM */
static const char *spraycan2_xpm[] = {
/* columns rows colors chars-per-pixel */
"32 32 3 1",
"X c Black",
". c #FFFFFF",
"  c None",
/* pixels */
"                                ",
"                                ",
"                                ",
"                                ",
"                                ",
"                                ",
"                                ",
"                                ",
"                                ",
"                                ",
"            .X....              ",
"            XXXXXX.             ",
"            .XX..XX.            ",
"            .X..X..X.           ",
"            .X.XX...X.          ",
"            .XXX.X...X.         ",
"             .XXX.X...X.        ",
"              .XXX.X..X.        ",
"               .XXX.XX.         ",
"                .XXXX.          ",
"                 .XX.           ",
"                  ..            ",
"                                ",
"                                ",
"                                ",
"                                ",
"                                ",
"                                ",
"                                ",
"                                ",
"                                ",
"                                "
};
