/* XPM */
static const char *TEXT_xpm[]={
"16 16 91 2",
"      c none",
" 0    c #CFD3E8",
" 1    c #5574B8",
" 2    c #3156A9",
" 3    c #228EEC",
" 4    c #3960B1",
" 5    c #D3D5E8",
" 6    c #0039AE",
" 7    c #0AA1FF",
" 8    c #0043BF",
" 9    c #D4D5E8",
" a    c #5C77B9",
" b    c #0072E5",
" c    c #008EFF",
" d    c #007CF9",
" e    c #3560B0",
" f    c #E5E3F0",
" g    c #0041B8",
" h    c #002F9D",
" i    c #004DCA",
" j    c #0075F0",
" k    c #0032B0",
" l    c #D4D6E9",
" m    c #5976B9",
" n    c #0040C0",
" o    c #B6BDDC",
" p    c #164BA9",
" q    c #0066E0",
" r    c #0055D1",
" s    c #355EAF",
" t    c #E5E4F0",
" u    c #0037B3",
" v    c #104BAB",
" w    c #B5BDDD",
" x    c #0035B1",
" y    c #004DC8",
" z    c #00219F",
" A    c #D5D8EA",
" B    c #5A79BA",
" C    c #0033B3",
" D    c #B4BDDE",
" E    c #194BA8",
" F    c #0047C1",
" G    c #0044C0",
" H    c #355FB0",
" I    c #E6E5F1",
" J    c #0032A9",
" K    c #001E92",
" L    c #6480BE",
" M    c #627FBE",
" N    c #2D54A8",
" O    c #002EA8",
" P    c #004BC5",
" Q    c #0022A0",
" R    c #5B7ABB",
" S    c #0031B0",
" T    c #0349AD",
" U    c #1754B1",
" V    c #1553B0",
" W    c #1B56B1",
" X    c #0037A2",
" Y    c #004AC2",
" Z    c #0045C1",
" &    c #365FB0",
"0     c #EAE9F2",
"00    c #0029A0",
"01    c #164CA9",
"02    c #002CA3",
"03    c #004DC6",
"04    c #0023A0",
"05    c #D8DBEB",
"06    c #B0BCDE",
"07    c #4F70B6",
"08    c #0026A3",
"09    c #6783BF",
"0a    c #002EA5",
"0b    c #0046BF",
"0c    c #0049C3",
"0d    c #2754AB",
"0e    c #ADBADD",
"0f    c #000E8A",
"0g    c #001D98",
"0h    c #00229D",
"0i    c #001692",
"0j    c #6381BF",
"0k    c #001B92",
"0l    c #001A91",
"0m    c #001790",
"0n    c #00148F",
"0o    c #000E8D",
"0p    c #ABB8DC",
"             0 1 0              ",
"             2 3 4              ",
"           5 6 7 8 9            ",
"           a b c d e            ",
"         f g h i j k l          ",
"         m n o p q r s          ",
"       t u v   w x y z A        ",
"       B C D     E F G H        ",
"     I J K L M L N O P Q A      ",
"     R S T U V U W X Y Z &      ",
"  0 0001            02030405    ",
"06070809            0a0b0c0d0e  ",
"0f0g0h0i0j        0k0k0l0m0n0o0p",
"                                ",
"                                ",
"                                "};
