/* XPM */
static const char *transparent_xpm[] = {
/* columns rows colors chars-per-pixel */
"16 16 3 1",
". c Black",
"  c None",
"X c #000D00",
/* pixels */
"                ",
" .............. ",
" .            . ",
" .            . ",
" .  ... ...   . ",
" .   .   .    . ",
" .    . .     . ",
" .    ...     . ",
" .    . .     . ",
" .   .   .    . ",
" .  ... ...   . ",
" .            X ",
" .            X ",
" .            X ",
" ............XX ",
"                "
};
