/* XPM */
static const char *Cursor_10_xpm[] = {
/* columns rows colors chars-per-pixel */
"32 32 4 1",
"X c Black",
". c #FFFFFF",
"o c #010000",
"  c none",
/* pixels */
"        ..                      ",
"       .XX.                     ",
"      .XXXX.                    ",
"     .XXXXXX.                   ",
"     ...XX...                   ",
"   ..oo.XX.oo..                 ",
"  .X.oo.XX.oo.X.                ",
" .XX....XX....XX.               ",
".XXXXXXXXXXXXXXXX.              ",
".XXXXXXXXXXXXXXXX.              ",
" .XX....XX....XX.               ",
"  .X.oo.XX.oo.X.                ",
"   ..oo.XX.oo..                 ",
"     ...XX...                   ",
"     .XXXXXX.                   ",
"      .XXXX.                    ",
"       .XX.                     ",
"        ..                      ",
"                                ",
"                                ",
"                                ",
"                                ",
"                                ",
"                                ",
"                                ",
"                                ",
"                                ",
"                                ",
"                                ",
"                                ",
"                                ",
"                                "
};
