/* XPM */
static const char *Cursor_4_xpm[] = {
/* columns rows colors chars-per-pixel */
"32 32 3 1",
"X c Black",
". c #FFFFFF",
"  c none",
/* pixels */
"       ...                      ",
"       .X.                      ",
"       .X.                      ",
"       .X.                      ",
"       .X.                      ",
"     ...X...                    ",
"     .XX XX.                    ",
"......X   X......               ",
".XXXXX     XXXXX.               ",
"......X   X......               ",
"     .XX XX.                    ",
"     ...X...                    ",
"       .X.                      ",
"       .X.                      ",
"       .X.                      ",
"       .X.                      ",
"       ...                      ",
"                                ",
"                                ",
"                                ",
"                                ",
"                                ",
"                                ",
"                                ",
"                                ",
"                                ",
"                                ",
"                                ",
"                                ",
"                                ",
"                                ",
"                                "
};
