/* XPM */
static const char *Cursor_15_xpm[] = {
/* columns rows colors chars-per-pixel */
"32 32 4 1",
". c Black",
"X c #FFFFFF",
"o c #010000",
"  c none",
/* pixels */
"                                ",
"                                ",
"                                ",
"                                ",
"                                ",
"                                ",
"                                ",
"                                ",
"                                ",
"                                ",
"         . .X.XXXX              ",
"        .o.o......X             ",
"       .o.o.X..XX..X            ",
"        .o. X.XX.XX.X           ",
"       .o.  X.X..XXX.X          ",
"        .o. X...X.XXX.X         ",
"       .o.   X...X.XXX.X        ",
"        .     X...X.XX.X        ",
"       .o.     X...X..X         ",
"        .       X....X          ",
"       .         X..X           ",
"        .         XX            ",
"       .                        ",
"                                ",
"                                ",
"                                ",
"                                ",
"                                ",
"                                ",
"                                ",
"                                ",
"                                "
};
