/* XPM */
static const char *Cursor_7_xpm[] = {
/* columns rows colors chars-per-pixel */
"32 32 3 1",
"X c Black",
". c #FFFFFF",
"  c none",
/* pixels */
"                                ",
"                                ",
"                                ",
"                                ",
"                                ",
"                                ",
"                                ",
"                                ",
"              ..                ",
"             .XX.               ",
"            .X.X..              ",
"        XXX.X...XX.             ",
"       XXX.X...X..X.            ",
"      XXX.X......XXX.           ",
"      XX.X......XXXXX.          ",
"      XX.XX.X..XXXXX.X.         ",
"      XXX..X..XXXXX..X.         ",
"      XXX .X.XXXXX..X.          ",
"      XXX  .XXXXX..X.           ",
"      XXX   .XXX..X.            ",
"       XX    .X..X.             ",
"       XX     .XX.              ",
"        X      ..               ",
"                                ",
"                                ",
"                                ",
"                                ",
"                                ",
"                                ",
"                                ",
"                                ",
"                                "
};
