/* XPM */
static const char *Cursor_1_xpm[] = {
/* columns rows colors chars-per-pixel */
"32 32 3 1",
"X c Black",
". c #FFFFFF",
"  c none",
/* pixels */
"                                ",
"                                ",
"                                ",
"                                ",
"               .                ",
"              .X.               ",
"              .X.               ",
"              .X.               ",
"         .    .X.     .         ",
"        .X.   .X.    .X.        ",
"       .XX.....X......XX.       ",
"      .XXXXXXX.X.XXXXXXXX.      ",
"     .XXXXXXXX.X.XXXXXXXXX.     ",
"      .XXXXXXX.X.XXXXXXXX.      ",
"       .XX.....X......XX.       ",
"        .X.   .X.    .X.        ",
"         .    .X.     .         ",
"              .X.               ",
"              .X.               ",
"              .X.               ",
"               .                ",
"                                ",
"                                ",
"                                ",
"                                ",
"                                ",
"                                ",
"                                ",
"                                ",
"                                ",
"                                ",
"                                "
};
