/* XPM */
static const char *Cursor_3_xpm[] = {
/* columns rows colors chars-per-pixel */
"32 32 3 1",
". c Black",
"X c #FFFFFF",
"  c none",
/* pixels */
"                                ",
"                                ",
"                                ",
"                                ",
"                                ",
"                                ",
"              .                 ",
"              X                 ",
"              .                 ",
"              X                 ",
"              .                 ",
"              X                 ",
"              .                 ",
"              X                 ",
"                                ",
"     .X.X.X.X   X.X.X.X.        ",
"                                ",
"              X                 ",
"              .                 ",
"              X                 ",
"              .                 ",
"              X                 ",
"              .                 ",
"              X                 ",
"              .                 ",
"                                ",
"                                ",
"                                ",
"                                ",
"                                ",
"                                ",
"                                "
};
