/* XPM */
static const char *Cursor_6_xpm[] = {
/* columns rows colors chars-per-pixel */
"32 32 3 1",
"X c Black",
". c #FFFFFF",
"  c none",
/* pixels */
"                                ",
"                                ",
"                                ",
"                                ",
"                                ",
"                                ",
"                                ",
"                                ",
"                   ...          ",
"                  .XXX.         ",
"                 .X.XXX.        ",
"               ..XXXXXX.        ",
"              .XXXXXXXX.        ",
"               .XXXXXX.         ",
"              .X.XXXX.          ",
"             .X...XX.           ",
"            .X...X.X.           ",
"           .X...X. .            ",
"          .X...X.               ",
"         .X...X.                ",
"        .X...X.                 ",
"        .X..X.                  ",
"        .XXX.                   ",
"         ...                    ",
"                                ",
"                                ",
"                                ",
"                                ",
"                                ",
"                                ",
"                                ",
"                                "
};
