/* XPM */
static const char *Cursor_9_xpm[] = {
/* columns rows colors chars-per-pixel */
"32 32 3 1",
"X c Black",
". c #FFFFFF",
"  c none",
/* pixels */
"                                ",
"                                ",
"                                ",
"                                ",
"                                ",
"                                ",
"                                ",
"             ....               ",
"           ..XXXX..             ",
"          .XX....XX.            ",
"         .X........X.           ",
"         .X........X.           ",
"        .X..........X.          ",
"        .X..........X.          ",
"        .X..........X.          ",
"        .X..........X.          ",
"         .X........X.           ",
"         .X........X.           ",
"          .XX.....XXX.          ",
"           ..XXXXX.XXX.         ",
"             .....X.XXX.        ",
"                  .X.XXX.       ",
"                   .X.XX.       ",
"                    .XX.        ",
"                     ..         ",
"                                ",
"                                ",
"                                ",
"                                ",
"                                ",
"                                ",
"                                "
};
