/* XPM */
static const char *Cursor_12_xpm[] = {
/* columns rows colors chars-per-pixel */
"32 32 3 1",
"X c Black",
". c #FFFFFF",
"  c none",
/* pixels */
"                                ",
"                                ",
"                                ",
"                                ",
"                                ",
"                                ",
"                                ",
"                                ",
"                                ",
"                .......         ",
"                .XXXXX.         ",
"                 .XXXX.         ",
"                  .XXX.         ",
"                 .X.XX.         ",
"                .X. .X.         ",
"          ..   .X.   ..         ",
"          .X. .X.               ",
"          .XX.X.                ",
"          .XXX.                 ",
"          .XXXX.                ",
"          .XXXXX.               ",
"          .......               ",
"                                ",
"                                ",
"                                ",
"                                ",
"                                ",
"                                ",
"                                ",
"                                ",
"                                ",
"                                "
};
