/* XPM */
static const char *Cursor_11_xpm[] = {
/* columns rows colors chars-per-pixel */
"32 32 3 1",
"X c Black",
". c #FFFFFF",
"  c none",
/* pixels */
"                                ",
"                                ",
"                                ",
"                                ",
"                                ",
"                                ",
"                                ",
"                                ",
"                                ",
"         .......                ",
"         .XXXXX.                ",
"         .XXXX.                 ",
"         .XXX.                  ",
"         .XX.X.                 ",
"         .X. .X.                ",
"         ..   .X.   ..          ",
"               .X. .X.          ",
"                .X.XX.          ",
"                 .XXX.          ",
"                .XXXX.          ",
"               .XXXXX.          ",
"               .......          ",
"                                ",
"                                ",
"                                ",
"                                ",
"                                ",
"                                ",
"                                ",
"                                ",
"                                ",
"                                "
};
