/* XPM */
static const char *Cursor_8_xpm[] = {
/* columns rows colors chars-per-pixel */
"32 32 3 1",
"X c Black",
". c #FFFFFF",
"  c none",
/* pixels */
"                                ",
"                                ",
"                                ",
"                                ",
"                                ",
"                                ",
"                                ",
"                                ",
"                  ...           ",
"                 .XXX.          ",
"                .X...X.         ",
"                .X...X.         ",
"               .XX..X.          ",
"               .X.XXX.          ",
"              .X...X.           ",
"              .X..XX.           ",
"             .X...X.            ",
"             .X..XX.            ",
"            .X...X.             ",
"            .XX.XX.             ",
"            .XXXX.              ",
"            .XXX.               ",
"            .XX.                ",
"            .X.                 ",
"             .                  ",
"                                ",
"                                ",
"                                ",
"                                ",
"                                ",
"                                ",
"                                "
};
